<svg width="235" height="48" viewBox="0 0 235 48" fill="none" xmlns="http://www.w3.org/2000/svg">
<g clip-path="url(#clip0_87_24)">
<path d="M60.5786 19.3735V38.3159H65.2617V22.2767H76.4236V19.3735H60.5786Z" fill="white"/>
<path d="M97.8997 23.2827C97.4846 22.4415 96.8797 21.7084 96.1327 21.1413C95.3112 20.5289 94.3797 20.08 93.3889 19.8191C92.2159 19.5187 91.0084 19.3738 89.7976 19.3879H80.0723V38.3159H84.7554V32.9264H89.7976C91.0084 32.9405 92.2159 32.7956 93.3889 32.4952C94.3786 32.2313 95.3095 31.7827 96.1327 31.173C96.8803 30.6007 97.4851 29.8627 97.8997 29.0172C98.3165 28.1174 98.5228 27.1343 98.503 26.1428C98.5167 25.1564 98.3106 24.1794 97.8997 23.2827ZM93.5901 26.1571C93.6339 26.6876 93.5713 27.2215 93.406 27.7275C93.2407 28.2334 92.9761 28.7012 92.6276 29.1034C92.2338 29.4408 91.7772 29.6969 91.2842 29.8572C90.7911 30.0176 90.2713 30.0788 89.7545 30.0376H84.7266V22.248H89.7545C90.2765 22.1755 90.8082 22.2269 91.3067 22.3979C91.8052 22.569 92.2565 22.8548 92.6242 23.2325C92.9919 23.6102 93.2657 24.0691 93.4235 24.5721C93.5813 25.0752 93.6187 25.6082 93.5326 26.1284L93.5901 26.1571Z" fill="white"/>
<path d="M113.587 19.3735H107.036L99.3218 38.3015H104.077L105.772 33.9899H114.851L116.546 38.3015H121.301L113.587 19.3735ZM113.587 31.0436H107.079L110.34 23.0097L113.587 31.0436Z" fill="white"/>
<path d="M144.429 35.4271V19.3735H129.13L128.067 33.1563C128.044 33.775 127.823 34.3698 127.435 34.8522C127.309 35.0169 127.148 35.1523 126.965 35.249C126.781 35.3458 126.579 35.4016 126.372 35.4127H124.605V42.3688H128.599L129.101 38.2584H142.03L142.547 42.3688H146.541V35.3696L144.429 35.4271ZM139.732 22.2479V35.3983H131.687C131.895 35.1539 132.078 34.8891 132.233 34.6079C132.468 34.164 132.601 33.6728 132.621 33.1707L133.483 22.1905L139.732 22.2479Z" fill="white"/>
<path d="M167.644 22.2767V19.3735H151.023V38.3159H167.644V35.4127H155.72V30.1095H165.087V27.2063H155.72V22.2767H167.644Z" fill="white"/>
<path d="M186.046 19.3735V27.5943H176.493V19.3735H171.81V38.3159H176.493V30.4831H186.046V38.3159H190.743V19.3735H186.046Z" fill="white"/>
<path d="M194.377 19.3735V22.2767H201.302V38.3159H205.999V22.2767H212.923V19.3735H194.377Z" fill="white"/>
<path d="M227.001 19.3735H220.451L212.736 38.3015H217.491L219.186 33.9899H228.265L229.96 38.3015H234.701L227.001 19.3735ZM227.001 31.0436H220.494L223.755 23.0097L227.001 31.0436Z" fill="white"/>
<path d="M34.5055 34.5217H12.9575V12.9636H34.5055V34.5217ZM17.2671 30.2101H30.1959V17.2752H17.2671V30.2101Z" fill="#F39200"/>
<path d="M47.4056 47.4277H0V0H27.955V4.31161H4.3096V43.1161H43.096V19.4597H47.4056V47.4277Z" fill="white"/>
<path d="M47.4055 11.9288H43.0959V4.31161H36.0713V0H47.4055V11.9288Z" fill="#F39200"/>
<path d="M43.7252 0.621369L30.8247 13.5278L33.8721 16.5766L46.7725 3.67014L43.7252 0.621369Z" fill="#F39200"/>
</g>
<defs>
<clipPath id="clip0_87_24">
<rect width="234.715" height="47.4277" fill="white"/>
</clipPath>
</defs>
</svg>
