<svg width="18" height="23" viewBox="0 0 18 23" fill="none" xmlns="http://www.w3.org/2000/svg">
<path d="M3 21.8002C2.46957 21.8002 1.96086 21.5811 1.58579 21.191C1.21071 20.8009 1 20.2718 1 19.7202V3.08002C1 2.52837 1.21071 1.99931 1.58579 1.60923C1.96086 1.21915 2.46957 1 3 1H11C11.3166 0.99947 11.6301 1.06407 11.9225 1.19008C12.215 1.3161 12.4806 1.50104 12.704 1.73425L16.292 5.46581C16.5168 5.69825 16.6952 5.97473 16.8167 6.27926C16.9382 6.58379 17.0005 6.91035 17 7.24006V19.7202C17 20.2718 16.7893 20.8009 16.4142 21.191C16.0391 21.5811 15.5304 21.8002 15 21.8002H3Z" stroke="#F39200" stroke-width="2" stroke-linecap="round" stroke-linejoin="round"/>
<path d="M11 1V6.20005C11 6.47588 11.1054 6.74041 11.2929 6.93545C11.4804 7.13049 11.7348 7.24006 12 7.24006H17" stroke="#F39200" stroke-width="2" stroke-linecap="round" stroke-linejoin="round"/>
</svg>
