<svg width="19" height="21" viewBox="0 0 19 21" fill="none" xmlns="http://www.w3.org/2000/svg">
<path d="M3.5059 10.6071H1.6979C1.1189 10.6071 0.649902 11.0959 0.649902 11.697V18.8003C0.649902 19.4014 1.1199 19.8902 1.6979 19.8902H3.5069C4.0869 19.8902 4.5559 19.4014 4.5559 18.7992V11.697C4.55564 11.4077 4.44503 11.1304 4.24837 10.9259C4.0517 10.7213 3.78503 10.6063 3.5069 10.606M10.2009 0.650024H8.3929C7.8129 0.650024 7.3439 1.13883 7.3439 1.74099V18.7982C7.3439 19.4014 7.8139 19.8892 8.3939 19.8892H10.2009C10.7809 19.8892 11.2499 19.4004 11.2499 18.7982V1.74203C11.2499 1.13883 10.7799 0.651064 10.1999 0.651064M16.8959 6.03415H15.0869C14.5069 6.03415 14.0379 6.52296 14.0379 7.12617V18.7982C14.0379 19.4014 14.5079 19.8892 15.0869 19.8892H16.8949C17.173 19.8889 17.4397 19.7739 17.6364 19.5693C17.833 19.3648 17.9436 19.0875 17.9439 18.7982V7.12512C17.9439 6.52192 17.4739 6.03415 16.8939 6.03415" stroke="#F39200" stroke-width="1.3" stroke-linecap="round" stroke-linejoin="round"/>
</svg>
