<svg width="24" height="25" viewBox="0 0 24 25" fill="none" xmlns="http://www.w3.org/2000/svg">
<path d="M12 15.5601C13.6569 15.5601 15 14.1632 15 12.4401C15 10.717 13.6569 9.32007 12 9.32007C10.3431 9.32007 9 10.717 9 12.4401C9 14.1632 10.3431 15.5601 12 15.5601Z" stroke="#F39200" stroke-width="2" stroke-linecap="round" stroke-linejoin="round"/>
<path d="M10 21.8002C10 22.3518 10.2107 22.8809 10.5858 23.271C10.9609 23.6611 11.4696 23.8802 12 23.8802C12.5304 23.8802 13.0391 23.6611 13.4142 23.271C13.7893 22.8809 14 22.3518 14 21.8002C14.0079 21.4425 14.1142 21.0946 14.3062 20.7978C14.4983 20.501 14.7682 20.2676 15.0838 20.1254C15.3995 19.9831 15.7477 19.9379 16.0873 19.9951C16.4269 20.0523 16.7437 20.2096 17 20.4482C17.1773 20.6394 17.389 20.7924 17.6232 20.8985C17.8573 21.0046 18.1093 21.0617 18.3646 21.0665C18.62 21.0713 18.8738 21.0238 19.1115 20.9266C19.3492 20.8295 19.5661 20.6846 19.75 20.5002C19.9339 20.3158 20.081 20.0956 20.183 19.8521C20.285 19.6085 20.3399 19.3465 20.3445 19.0809C20.3492 18.8154 20.3035 18.5514 20.2101 18.3042C20.1166 18.057 19.9773 17.8314 19.8 17.6402C19.5747 17.3803 19.424 17.06 19.3649 16.7155C19.3058 16.3711 19.3408 16.0163 19.4657 15.6915C19.5906 15.3666 19.8006 15.0847 20.0718 14.8776C20.343 14.6706 20.6646 14.5467 21 14.5201C21.5304 14.5201 22.0391 14.301 22.4142 13.9109C22.7893 13.5208 23 12.9918 23 12.4401C23 11.8885 22.7893 11.3594 22.4142 10.9693C22.0391 10.5792 21.5304 10.3601 21 10.3601C20.6646 10.3335 20.343 10.2096 20.0718 10.0026C19.8006 9.79553 19.5906 9.5136 19.4657 9.18875C19.3408 8.86389 19.3058 8.50913 19.3649 8.16469C19.424 7.82025 19.5747 7.49993 19.8 7.24006C20.1448 6.8539 20.3279 6.34111 20.3092 5.81451C20.2904 5.2879 20.0713 4.79061 19.7 4.43203C19.3287 4.07346 18.8356 3.88297 18.3293 3.90247C17.8229 3.92198 17.3448 4.14987 17 4.53603C16.7373 4.78072 16.4114 4.93979 16.0625 4.99347C15.7137 5.04716 15.3574 4.9931 15.0378 4.83801C14.7183 4.68292 14.4496 4.43364 14.2651 4.1211C14.0806 3.80857 13.9884 3.44656 14 3.08002C14 2.52836 13.7893 1.9993 13.4142 1.60922C13.0391 1.21914 12.5304 1 12 1C11.4696 1 10.9609 1.21914 10.5858 1.60922C10.2107 1.9993 10 2.52836 10 3.08002C10.0116 3.44656 9.91943 3.80857 9.73493 4.1211C9.55042 4.43364 9.28172 4.68292 8.96217 4.83801C8.64262 4.9931 8.28631 5.04716 7.93748 4.99347C7.58865 4.93979 7.26266 4.78072 7 4.53603C6.82928 4.34483 6.62402 4.19046 6.39594 4.08176C6.16786 3.97305 5.92143 3.91213 5.67071 3.90247C5.16436 3.88297 4.6713 4.07346 4.3 4.43203C3.9287 4.79061 3.70957 5.2879 3.69081 5.81451C3.67206 6.34111 3.85522 6.8539 4.2 7.24006C4.42525 7.49993 4.57597 7.82025 4.63506 8.16469C4.69415 8.50913 4.65924 8.86389 4.5343 9.18875C4.40936 9.5136 4.19938 9.79553 3.92819 10.0026C3.657 10.2096 3.33544 10.3335 3 10.3601C2.46957 10.3601 1.96086 10.5792 1.58579 10.9693C1.21071 11.3594 1 11.8885 1 12.4401C1 12.9918 1.21071 13.5208 1.58579 13.9109C1.96086 14.301 2.46957 14.5201 3 14.5201C3.33544 14.5467 3.657 14.6706 3.92819 14.8776C4.19938 15.0847 4.40936 15.3666 4.5343 15.6915C4.65924 16.0163 4.69415 16.3711 4.63506 16.7155C4.57597 17.06 4.42525 17.3803 4.2 17.6402C3.84196 18.0263 3.64608 18.5446 3.65546 19.0809C3.66483 19.6173 3.8787 20.1278 4.25 20.5002C4.6213 20.8725 5.11963 21.0763 5.63536 21.0665C6.15108 21.0568 6.64196 20.8343 7 20.4482C7.25634 20.2096 7.57306 20.0523 7.91266 19.9951C8.25226 19.9379 8.6005 19.9831 8.91617 20.1254C9.23183 20.2676 9.50168 20.501 9.69376 20.7978C9.88585 21.0946 9.99212 21.4425 10 21.8002Z" stroke="#F39200" stroke-width="2" stroke-linecap="round" stroke-linejoin="round"/>
</svg>
