<svg width="22" height="22" viewBox="0 0 22 22" fill="none" xmlns="http://www.w3.org/2000/svg">
<path d="M0.75 10.6301C0.75 6.70826 0.75 4.7468 1.922 3.52895C3.094 2.3111 4.979 2.31006 8.75 2.31006H12.75C16.521 2.31006 18.407 2.31006 19.578 3.52895C20.749 4.74784 20.75 6.70826 20.75 10.6301V12.7102C20.75 16.632 20.75 18.5935 19.578 19.8113C18.406 21.0292 16.521 21.0302 12.75 21.0302H8.75C4.979 21.0302 3.093 21.0302 1.922 19.8113C0.751 18.5924 0.75 16.632 0.75 12.7102V10.6301Z" stroke="#F39200" stroke-width="1.5"/>
<path d="M5.75 2.31001V0.75M15.75 2.31001V0.75M1.25 7.51006H20.25" stroke="#F39200" stroke-width="1.5" stroke-linecap="round"/>
<path d="M5.75 15.2903C5.87614 15.2903 6.00126 15.3424 6.09668 15.4417C6.19264 15.5415 6.25 15.681 6.25 15.8303C6.24996 15.9797 6.1927 16.1191 6.09668 16.219C6.00126 16.3182 5.87614 16.3704 5.75 16.3704C5.62386 16.3704 5.49874 16.3182 5.40332 16.219C5.3073 16.1191 5.25004 15.9797 5.25 15.8303C5.25 15.681 5.30736 15.5415 5.40332 15.4417C5.49874 15.3424 5.62386 15.2903 5.75 15.2903ZM10.75 15.2903C10.8761 15.2903 11.0013 15.3424 11.0967 15.4417C11.1926 15.5415 11.25 15.681 11.25 15.8303C11.25 15.9797 11.1927 16.1191 11.0967 16.219C11.0013 16.3182 10.8761 16.3704 10.75 16.3704C10.6239 16.3704 10.4987 16.3182 10.4033 16.219C10.3073 16.1191 10.25 15.9797 10.25 15.8303C10.25 15.681 10.3074 15.5415 10.4033 15.4417C10.4987 15.3424 10.6239 15.2903 10.75 15.2903ZM15.75 15.2903C15.8761 15.2903 16.0013 15.3424 16.0967 15.4417C16.1926 15.5415 16.25 15.681 16.25 15.8303C16.25 15.9797 16.1927 16.1191 16.0967 16.219C16.0013 16.3182 15.8761 16.3704 15.75 16.3704C15.6239 16.3704 15.4987 16.3182 15.4033 16.219C15.3073 16.1191 15.25 15.9797 15.25 15.8303C15.25 15.681 15.3074 15.5415 15.4033 15.4417C15.4987 15.3424 15.6239 15.2903 15.75 15.2903ZM5.75 11.1301C5.87614 11.1301 6.00126 11.1823 6.09668 11.2815C6.19268 11.3814 6.25 11.5208 6.25 11.6702C6.24999 11.8195 6.19269 11.9589 6.09668 12.0588C6.00126 12.1581 5.87614 12.2102 5.75 12.2102C5.62386 12.2102 5.49874 12.1581 5.40332 12.0588C5.30731 11.9589 5.25001 11.8195 5.25 11.6702C5.25 11.5208 5.30732 11.3814 5.40332 11.2815C5.49874 11.1823 5.62386 11.1301 5.75 11.1301ZM10.75 11.1301C10.8761 11.1301 11.0013 11.1823 11.0967 11.2815C11.1927 11.3814 11.25 11.5208 11.25 11.6702C11.25 11.8195 11.1927 11.9589 11.0967 12.0588C11.0013 12.1581 10.8761 12.2102 10.75 12.2102C10.6239 12.2102 10.4987 12.1581 10.4033 12.0588C10.3073 11.9589 10.25 11.8195 10.25 11.6702C10.25 11.5208 10.3073 11.3814 10.4033 11.2815C10.4987 11.1823 10.6239 11.1301 10.75 11.1301ZM15.75 11.1301C15.8761 11.1301 16.0013 11.1823 16.0967 11.2815C16.1927 11.3814 16.25 11.5208 16.25 11.6702C16.25 11.8195 16.1927 11.9589 16.0967 12.0588C16.0013 12.1581 15.8761 12.2102 15.75 12.2102C15.6239 12.2102 15.4987 12.1581 15.4033 12.0588C15.3073 11.9589 15.25 11.8195 15.25 11.6702C15.25 11.5208 15.3073 11.3814 15.4033 11.2815C15.4987 11.1823 15.6239 11.1301 15.75 11.1301Z" fill="black" stroke="#F39200"/>
</svg>
