<svg width="23" height="29" viewBox="0 0 23 29" fill="none" xmlns="http://www.w3.org/2000/svg">
<path d="M0 2.85714C0 2.09938 0.301019 1.37266 0.836838 0.836838C1.37266 0.301019 2.09938 0 2.85714 0H14.2857C14.6646 8.09106e-05 15.0279 0.150644 15.2957 0.418571L22.4386 7.56143C22.7065 7.82928 22.8571 8.19258 22.8571 8.57143V25.7143C22.8571 26.472 22.5561 27.1988 22.0203 27.7346C21.4845 28.2704 20.7578 28.5714 20 28.5714H2.85714C2.09938 28.5714 1.37266 28.2704 0.836838 27.7346C0.301019 27.1988 0 26.472 0 25.7143V2.85714ZM19.4086 8.57143L14.2857 3.44857V8.57143H19.4086ZM11.4286 2.85714H2.85714V25.7143H20V11.4286H12.8571C12.4783 11.4286 12.1149 11.2781 11.847 11.0102C11.5791 10.7422 11.4286 10.3789 11.4286 10V2.85714ZM5.71429 15.7143C5.71429 15.3354 5.8648 14.972 6.13271 14.7041C6.40061 14.4362 6.76398 14.2857 7.14286 14.2857H15.7143C16.0932 14.2857 16.4565 14.4362 16.7244 14.7041C16.9923 14.972 17.1429 15.3354 17.1429 15.7143C17.1429 16.0932 16.9923 16.4565 16.7244 16.7244C16.4565 16.9923 16.0932 17.1429 15.7143 17.1429H7.14286C6.76398 17.1429 6.40061 16.9923 6.13271 16.7244C5.8648 16.4565 5.71429 16.0932 5.71429 15.7143ZM5.71429 21.4286C5.71429 21.0497 5.8648 20.6863 6.13271 20.4184C6.40061 20.1505 6.76398 20 7.14286 20H15.7143C16.0932 20 16.4565 20.1505 16.7244 20.4184C16.9923 20.6863 17.1429 21.0497 17.1429 21.4286C17.1429 21.8075 16.9923 22.1708 16.7244 22.4387C16.4565 22.7066 16.0932 22.8571 15.7143 22.8571H7.14286C6.76398 22.8571 6.40061 22.7066 6.13271 22.4387C5.8648 22.1708 5.71429 21.8075 5.71429 21.4286Z" fill="#F39200"/>
</svg>
