<svg width="29" height="29" viewBox="0 0 29 29" fill="none" xmlns="http://www.w3.org/2000/svg">
<path d="M21.4286 28.5714V25.7143H25.7143V21.4286H28.5714V26.4286C28.5714 27 28.2857 27.4286 27.8571 27.8571C27.4286 28.2857 26.8571 28.5714 26.4286 28.5714H21.4286ZM7.14286 28.5714H2.14286C1.57143 28.5714 1.14286 28.2857 0.714286 27.8571C0.285714 27.4286 0 26.8571 0 26.4286V21.4286H2.85714V25.7143H7.14286V28.5714ZM21.4286 0H26.4286C27 0 27.4286 0.285714 27.8571 0.714286C28.2857 1.14286 28.5714 1.57143 28.5714 2.14286V7.14286H25.7143V2.85714H21.4286V0ZM7.14286 0V2.85714H2.85714V7.14286H0V2.14286C0 1.57143 0.285714 1.14286 0.714286 0.714286C1.14286 0.285714 1.57143 0 2.14286 0H7.14286ZM24.2857 12.8571H4.28571V15.7143H24.2857V12.8571Z" fill="#F39200"/>
</svg>
