<svg width="16" height="23" viewBox="0 0 16 23" fill="none" xmlns="http://www.w3.org/2000/svg">
<path d="M7.75 15.3101C11.616 15.3101 14.75 12.0507 14.75 8.03007C14.75 4.0094 11.616 0.75 7.75 0.75C3.88401 0.75 0.75 4.0094 0.75 8.03007C0.75 12.0507 3.88401 15.3101 7.75 15.3101Z" stroke="#F39200" stroke-width="1.5"/>
<path d="M3.10086 14.27L2.46386 16.686C1.83586 19.0697 1.52186 20.2615 1.94086 20.9136C2.08786 21.1424 2.28486 21.3254 2.51386 21.4471C3.16586 21.7924 4.17386 21.2464 6.18886 20.1544C6.85886 19.7904 7.19486 19.6094 7.55086 19.5699C7.68319 19.5561 7.81652 19.5561 7.94886 19.5699C8.30486 19.6094 8.63986 19.7914 9.31086 20.1544C11.3259 21.2464 12.3339 21.7924 12.9859 21.4471C13.2149 21.3254 13.4119 21.1424 13.5589 20.9136C13.9789 20.2615 13.6639 19.0697 13.0359 16.686L12.3989 14.27" stroke="#F39200" stroke-width="1.5" stroke-linecap="round"/>
</svg>
