<svg width="20" height="26" viewBox="0 0 20 26" fill="none" xmlns="http://www.w3.org/2000/svg">
<path d="M0 2.5497C0 1.87348 0.258294 1.22495 0.718061 0.74679C1.17783 0.268628 1.8014 0 2.45161 0H12.2581C12.5831 7.22042e-05 12.8949 0.134434 13.1247 0.373531L19.2537 6.74778C19.4836 6.98681 19.6128 7.31102 19.6129 7.6491V22.9473C19.6129 23.6235 19.3546 24.2721 18.8948 24.7502C18.4351 25.2284 17.8115 25.497 17.1613 25.497H2.45161C1.8014 25.497 1.17783 25.2284 0.718061 24.7502C0.258294 24.2721 0 23.6235 0 22.9473V2.5497ZM16.6538 7.6491L12.2581 3.07749V7.6491H16.6538ZM9.80645 2.5497H2.45161V22.9473H17.1613V10.1988H11.0323C10.7072 10.1988 10.3954 10.0645 10.1655 9.82541C9.9356 9.58633 9.80645 9.26206 9.80645 8.92395V2.5497ZM4.90323 14.0234C4.90323 13.6852 5.03237 13.361 5.26226 13.1219C5.49214 12.8828 5.80393 12.7485 6.12903 12.7485H13.4839C13.809 12.7485 14.1208 12.8828 14.3506 13.1219C14.5805 13.361 14.7097 13.6852 14.7097 14.0234C14.7097 14.3615 14.5805 14.6857 14.3506 14.9248C14.1208 15.1639 13.809 15.2982 13.4839 15.2982H6.12903C5.80393 15.2982 5.49214 15.1639 5.26226 14.9248C5.03237 14.6857 4.90323 14.3615 4.90323 14.0234ZM4.90323 19.1228C4.90323 18.7846 5.03237 18.4604 5.26226 18.2213C5.49214 17.9822 5.80393 17.8479 6.12903 17.8479H13.4839C13.809 17.8479 14.1208 17.9822 14.3506 18.2213C14.5805 18.4604 14.7097 18.7846 14.7097 19.1228C14.7097 19.4609 14.5805 19.7851 14.3506 20.0242C14.1208 20.2633 13.809 20.3976 13.4839 20.3976H6.12903C5.80393 20.3976 5.49214 20.2633 5.26226 20.0242C5.03237 19.7851 4.90323 19.4609 4.90323 19.1228Z" fill="#F39200"/>
</svg>
